<?xml version="1.0" encoding="utf-8"?>
<svg xmlns="http://www.w3.org/2000/svg" fill="none" height="584" viewBox="0 0 2055 584" width="2055">
<path d="M460.298 264.246C466.148 266.321 464.602 271.508 464.404 276.408C462.197 296.119 459.46 315.829 456.325 335.429C480.649 305.897 516.715 286.208 555.077 283.957C564.899 283.648 577.547 283.979 585.868 289.872C590.503 293.382 594.234 299.827 588.495 304.307C581.167 304.948 573.574 301.747 566.18 301.239C550.619 299.738 534.837 306.029 521.395 313.357C497.336 326.954 476.08 346.797 461.137 370.061C449.328 388.58 443.104 409.306 439.727 430.87C439.263 440.494 428.006 442.635 420.48 444.291C413.086 445.328 401.784 445.35 401.078 435.418C402.557 428.398 408.053 422.748 409.598 415.552C419.619 374.785 428.889 333.355 434.805 291.77C435.533 287.312 436.085 282.456 437.851 278.284C441.603 269.764 451.16 264.29 460.298 264.246Z" fill="#482C2E"/>
<path d="M526.823 393.677C535.255 391.779 544.768 393.28 550.904 399.791C558.629 407.914 559.071 422.239 553.508 431.62C545.231 445.922 520.819 445.658 513.028 430.957C505.589 417.317 510.247 397.407 526.823 393.677Z" fill="#482C2E"/>
<path clip-rule="evenodd" d="M160.848 9.93297C152.815 5.74193 144.392 1.34732 135.832 0.169487C128.35 -0.691336 118.881 1.62629 115.967 9.43992C114.135 14.2738 117.446 18.9752 121.905 20.8072C126.412 22.7011 130.988 24.3936 135.562 26.0855C143.195 28.9091 150.824 31.7312 158.126 35.4853C165.647 39.3352 173.237 43.0655 180.826 46.7954C194.861 53.6936 208.893 60.5906 222.489 68.2407C258.621 88.6356 292.105 111.878 320.004 142.89C341.37 165.668 356.534 193.7 364.502 223.895C372.007 253.693 369.513 285.345 358.543 313.973C344.902 349.62 319.96 381.558 287.094 401.335C266.854 413.872 243.457 420.825 219.575 420.494C195.923 420.557 174.873 414.431 152.588 407.945C151.289 407.567 149.986 407.188 148.679 406.809L148.728 406.67C150.278 402.347 151.813 398.068 153.866 393.941C172.318 359.442 184.899 320.881 195.031 283.182C211.232 221.07 221.076 157.215 225.557 93.2046C225.589 92.1694 225.645 91.093 225.703 89.9922C225.965 85.014 226.253 79.5377 224.409 75.1273C220.877 68.2849 211.276 68.5939 205.824 72.7876C195.671 80.4467 193.927 92.4541 193.044 104.307C190.219 150.814 184.061 197.011 174.945 242.701C166.977 283.358 155.609 323.839 139.651 362.112C134.243 375.113 127.754 387.562 120.316 399.503L119.406 399.301C97.9367 394.539 73.8522 389.195 51.9353 392.33C34.7409 395.199 16.5532 404.16 6.44408 418.794C-1.10468 429.522 -2.58352 444.487 5.03145 455.589C12.9554 467 26.9935 473.401 40.7225 473.424C60.5214 473.821 78.5546 466.537 95.5282 457.024C110.273 448.57 123.384 438.019 134.464 425.085C138.667 426.369 142.785 427.69 146.865 428.998C158.704 432.794 170.227 436.489 182.604 438.902C210.967 444.465 240.787 444.266 268.73 436.474C337.993 416.896 392.821 355.535 403.328 284.153C407.102 254.664 403.968 223.498 392.623 195.885C382.734 171.628 368.166 149.511 350.244 130.441C329.584 108.037 305.702 90.9974 280.318 74.421C246.751 52.7536 211.438 35.1802 175.798 17.444C173.425 16.2633 171.051 15.0819 168.676 13.8985C166.115 12.6812 163.503 11.3182 160.848 9.93297ZM38.5386 449.075C64.297 448.346 87.451 434.728 106.014 417.688C105.611 417.608 105.206 417.527 104.801 417.446C84.7427 413.438 62.0057 408.895 42.5557 417.202C32.6452 421.462 22.5361 429.475 23.9708 441.482C25.1627 448.324 32.866 449.119 38.5386 449.075Z" fill="#482C2E" fill-rule="evenodd"/>
<path clip-rule="evenodd" d="M1034.02 49.1002C1031.2 40.6906 1025.55 33.495 1016.26 32.3031C1004.87 30.8463 993.035 39.2779 984.515 45.9438C960.412 64.7936 945.403 89.294 930.592 115.56C921.593 131.635 914.134 148.27 906.655 164.949L906.655 164.95L906.654 164.951C902.632 173.922 898.604 182.905 894.327 191.82C878.435 225.039 862.146 258.104 845.548 290.969C829.92 321.76 811.71 351.227 791.294 379.06C790.648 378.947 790.004 378.834 789.36 378.721L787.411 378.378L787.373 378.372L787.366 378.37C757.226 373.067 729.023 368.105 698.347 375.573C676.451 380.959 652.635 392.922 641.135 413.206C633.697 427.024 632.306 448.566 646.697 458.543C664.311 470.882 688.767 468.763 708.434 463.2C743.816 452.694 779.551 434.153 804.846 406.827C810.292 408.018 815.736 409.22 821.181 410.423L821.211 410.43C835.641 413.616 850.078 416.805 864.574 419.784C894.504 425.788 925.295 426.715 955.578 422.962C950.193 461.611 944.984 502.29 947.014 541.314C947.765 556.544 953.923 575.151 968.976 581.795C975.863 584.797 988.908 585.172 992.682 577.138C995.05 571.482 992.617 564.587 990.306 558.036C989.127 554.694 987.979 551.441 987.517 548.488C980.464 507.641 984.778 469.475 989.305 429.425L989.308 429.397L989.309 429.392L989.309 429.387C989.796 425.084 990.284 420.759 990.762 416.407C1024.05 407.71 1055.83 394.688 1084.08 374.867C1081.99 393.319 1080.93 412.677 1087.5 430.401C1092.65 444.13 1101.87 456.093 1115.58 461.964C1132.33 469.094 1151.45 467.482 1168.14 461.037C1196.32 450.42 1222.3 431.857 1244.81 412.103C1257.66 400.25 1269.87 387.647 1282.03 375.087C1279.27 394.864 1276.78 417.466 1281.65 437.022C1284.32 448.346 1293.33 455.431 1303.88 459.117C1316.88 463.598 1332.75 460.772 1345.82 457.66C1379.32 448.986 1409.92 430.114 1438.54 411.264C1437.81 414.632 1437.06 417.999 1436.32 421.365L1436.31 421.399L1436.31 421.401L1436.31 421.403L1436.31 421.405L1436.31 421.407C1434.31 430.448 1432.3 439.489 1430.49 448.566C1429.87 451.855 1429.38 456.247 1432.56 458.411C1438.46 462.98 1448.19 461.037 1454.48 458.212C1458.78 456.512 1460.75 453.091 1462.43 449.008C1472.71 422.764 1484.61 396.917 1498.89 372.571C1508.58 355.796 1520.87 340.345 1535.09 327.212C1540.23 322.732 1543.23 321.363 1550.23 321.981C1550.47 344.939 1550.21 367.909 1549.96 390.873V390.881V390.889V390.897V390.905L1549.96 390.914C1549.86 399.111 1549.77 407.307 1549.7 415.502C1549.7 429.121 1552.66 442.43 1561.49 453.113C1569.63 463.112 1581.97 468.078 1594.77 465.805C1612.34 463.09 1627.37 449.648 1639.91 437.905C1648.28 458.896 1667.21 467.725 1687.98 472.515C1716.39 478.143 1747.54 474.523 1775.55 468.012C1779.74 467.014 1783.85 466.606 1787.93 466.202C1794.21 465.579 1800.4 464.966 1806.65 462.207C1832.16 451.369 1855.65 434.903 1876.57 416.826C1877.85 434.131 1879.2 451.855 1891.23 465.496C1898.29 473.729 1908.47 477.282 1919.13 477.393C1939.01 477.636 1957.6 469.138 1974.9 460.176C2001.77 445.94 2025.6 427.84 2048.14 407.556L2048.27 407.423C2051.61 404.107 2056.76 398.994 2052.91 394.268C2050.26 390.428 2042.36 391.421 2038.43 392.193C2033.57 393.102 2029.89 396.411 2026.32 399.631L2026.32 399.632C2025.64 400.244 2024.96 400.853 2024.28 401.442C2003.82 420.049 1980.8 438.126 1955.52 449.626C1945.39 454.151 1930.82 458.013 1920.89 451.325C1910.21 444.417 1908.44 431.571 1907.52 419.916C1905.72 398.86 1912.73 378.299 1919.46 358.555C1919.83 357.478 1920.2 356.404 1920.56 355.333C1922.3 350.039 1924.39 344.858 1926.47 339.678C1929.02 333.366 1931.56 327.056 1933.47 320.546C1934.73 316.309 1932.48 312.733 1928.57 311.077C1923.28 309.047 1916.32 309.885 1911.67 313.13C1909.11 315.038 1907.15 317.88 1905.27 320.6C1904.71 321.404 1904.16 322.197 1903.61 322.952C1896.22 317.854 1888.64 314.432 1879.42 314.83C1857.35 315.095 1836.13 328.868 1819.36 342.133C1801.77 356.569 1785.1 374.182 1774.44 394.445C1773.71 395.816 1772.97 397.179 1772.23 398.539L1772.2 398.582L1772.18 398.619L1772.16 398.652C1766.6 408.875 1761.13 418.917 1759.98 430.82C1759.04 438.214 1760.67 445.101 1762.61 452.142C1741.22 455.21 1717.19 456.689 1696.2 450.773C1687.59 448.147 1677.72 444.726 1672.97 436.493C1667.41 427.266 1667.72 417.555 1668.94 407.225C1694.34 404.907 1717.63 393.385 1736.23 376.169C1744.29 368.598 1753.76 359.46 1757.51 348.865C1760.62 340.367 1758.84 330.545 1751.75 324.608C1743.61 317.611 1732.9 316.64 1722.64 318.163C1704.76 320.833 1687.7 331.075 1674.26 342.818C1658.41 356.502 1645.76 374.624 1640.48 395.019C1639.74 397.5 1639.13 399.984 1638.52 402.442C1636.65 410.04 1634.84 417.387 1629.38 423.625C1621.99 432.012 1612.19 439.34 1601.37 442.496C1592.65 444.748 1582.7 442.496 1579.01 433.513C1575.06 423.117 1574.64 411.043 1574.27 400.029C1573.83 374.889 1576.14 349.859 1579.21 324.961C1580.45 314.432 1578.48 303.749 1569.57 297.106C1560.8 290.55 1550.8 292.139 1541.31 296.046C1518.51 305.802 1502 324.961 1488.43 345.113C1489.79 339.439 1491.05 333.748 1492.32 328.058C1494.31 319.097 1496.29 310.139 1498.67 301.255C1510.99 254.174 1523.38 207.094 1535.77 160.013C1539.9 144.32 1544.03 128.627 1548.16 112.934C1549.78 106.648 1551.59 100.398 1553.41 94.1467L1553.41 94.1448C1556.1 84.8985 1558.79 75.6484 1560.85 66.2725C1562.92 56.3841 1563.28 44.7961 1556.54 36.5189C1552.17 30.9567 1544.45 27.999 1538.07 32.1707C1534.6 34.5355 1533.89 38.3467 1533.19 42.1628C1533.04 42.9414 1532.9 43.7203 1532.73 44.4871C1530.38 58.5582 1526.96 72.4914 1523.54 86.3906L1523.54 86.3913L1523.54 86.392L1523.54 86.3927L1523.54 86.3957C1522.43 90.9399 1521.31 95.4805 1520.23 100.021C1502.65 172.128 1483.22 243.731 1463.79 315.351L1463.78 315.353L1463.78 315.364C1459.87 329.788 1455.95 344.213 1452.05 358.643C1451.3 361.017 1450.72 363.566 1450.12 366.148C1448.45 373.386 1446.71 380.892 1441.21 385.594C1429.26 397.328 1413.34 405.766 1398.36 413.697C1396.49 414.687 1394.64 415.67 1392.81 416.65C1390.96 417.535 1389.1 418.436 1387.24 419.34L1387.23 419.347L1387.21 419.354C1371.08 427.185 1354.51 435.232 1336.39 435.588C1329.57 435.72 1320.06 435.632 1315.36 429.915C1309.09 422.653 1307.99 411.463 1308.16 402.258C1308.65 375.595 1313.88 348.645 1319.29 322.599C1352.33 319.487 1385.13 315.933 1417.64 309.069C1421.35 308.053 1425.7 306.729 1426.98 302.646C1428.74 296.907 1423.03 291.455 1417.66 290.594C1410.76 289.608 1403.27 290.754 1396.01 291.867C1393.04 292.322 1390.11 292.771 1387.27 293.066C1365.79 295.45 1344.23 297.128 1322.69 298.783C1324.34 288.083 1326.6 277.496 1328.87 266.915C1331.19 256.107 1333.51 245.306 1335.16 234.398C1336.59 227.246 1329.84 220.117 1323.15 218.903C1318.23 218.197 1314.23 221.154 1313.39 226.033C1308.53 250.752 1302.79 275.214 1297.03 299.736L1297.03 299.737L1297.03 299.74L1296.75 300.924C1284.15 302.01 1271.55 302.907 1258.95 303.804C1247.99 304.583 1237.04 305.362 1226.1 306.266C1220.78 306.928 1215.9 307.811 1214.86 313.991C1214.49 323.107 1224.38 328.956 1232.63 328.713C1246.19 328.561 1259.75 327.606 1273.31 326.651L1273.31 326.651L1273.31 326.651L1273.31 326.651L1273.31 326.651C1279.36 326.226 1285.4 325.8 1291.43 325.447C1285.74 337.962 1278.67 349.241 1269.23 359.261C1254.9 375.132 1239.47 390.008 1222.63 403.208C1206.06 416.981 1188.66 429.43 1168.58 437.618C1159.57 441.216 1149.57 442.96 1140.21 439.495C1132.07 436.471 1126.66 429.209 1123.15 421.55C1116.18 406.364 1115.63 387.757 1116.68 371.357C1117.06 364.382 1120.99 359.615 1125.45 354.648C1152.68 325.557 1176.06 292.228 1196.98 258.391C1215.17 230.888 1231.37 202.018 1245.41 172.198C1258.72 144.188 1268.54 114.015 1273.24 83.3344C1274.97 70.7311 1276.29 56.1192 1270.4 44.3767C1266.07 35.6139 1258.01 30.6256 1248.21 30.6918C1228.53 30.3828 1213.16 42.942 1200.25 56.3841C1184.73 72.828 1172.17 92.7815 1161.8 112.823C1145.71 143.989 1134.25 176.37 1124.3 209.92C1110.97 253.513 1098.54 296.797 1089.71 341.581C1089.55 342.129 1089.42 342.725 1089.27 343.338L1089.27 343.341L1089.27 343.343L1089.27 343.344C1088.79 345.399 1088.27 347.656 1086.84 348.998C1060.07 371.975 1027.93 386.499 993.719 394.423C999.72 349.657 1007.72 305.441 1015.73 261.142L1015.73 261.138C1019.63 239.606 1023.53 218.055 1027.2 196.411C1033.21 167.496 1037.14 138.14 1039.03 108.674C1040.05 89.3382 1040.18 67.641 1034.02 49.1002ZM1009.61 75.5671C1009.66 70.4463 1009.17 65.4579 1008.2 60.4475C1002.37 63.0521 998.223 66.0539 994.449 71.1968C974.73 96.7969 959.601 126.446 944.945 155.169L944.521 155.999C937.009 171.554 929.693 187.133 922.386 202.695L922.385 202.697L922.383 202.701L922.383 202.702C905.624 238.394 888.905 273.999 869.939 309.027C855.857 335.801 839.964 361.559 821.909 385.839C827.237 386.946 832.559 388.107 837.883 389.269L837.883 389.269C849.541 391.813 861.211 394.36 872.985 396.345C901.458 400.561 930.307 401.532 959.001 399.303C965.799 356.063 972.73 312.779 981.095 269.804C989.659 224.114 997.495 178.248 1005.2 132.404C1008.33 113.598 1009.46 94.6156 1009.61 75.5671ZM699.628 399.482C722.672 394.008 748.32 397.253 771.452 400.939C754.368 413.586 736.025 424.91 716.558 433.452C704.175 438.727 689.982 443.45 676.408 443.186C670.25 442.81 664.268 441.111 661.73 434.931C659.677 427.845 662.988 420.804 667.91 415.772C676.099 407.318 688.415 402.352 699.628 399.482ZM1674.81 388.068C1700.99 382.572 1724.25 364.715 1737.63 341.738C1726.02 338.869 1714.69 342.93 1704.96 349.11C1690.74 358.579 1681.43 372.573 1674.81 388.068ZM1864.96 344.128C1872.66 342.009 1880.41 343.62 1884.96 350.573C1889.22 356.665 1886.39 363.242 1883.74 369.29C1868.34 399.353 1842.67 424.162 1812.87 439.789C1812.63 439.891 1812.39 439.999 1812.13 440.112L1811.67 440.318C1806.85 442.45 1799.19 445.844 1795.03 442.416C1793.14 435.441 1795.76 427.34 1798.21 420.763C1806.93 399.419 1820.68 378.649 1837.19 362.514C1844.96 355.053 1854.34 346.953 1864.96 344.128ZM1249.4 82.8926C1251.69 70.8791 1254.14 57.9636 1248.66 46.5163C1236.95 47.4372 1229.08 56.8191 1221.94 65.3414C1221.21 66.2155 1220.49 67.0805 1219.76 67.9265C1181.14 117.634 1157.03 180.871 1141.94 241.482C1136.91 261.055 1132.48 280.729 1128.05 300.422C1127.01 305.047 1125.97 309.673 1124.92 314.298C1155.31 271.809 1184.85 227.532 1209.66 181.533C1225.79 151.184 1241.4 118.494 1249.03 84.8561C1249.15 84.2045 1249.28 83.5499 1249.4 82.8926Z" fill="#482C2E" fill-rule="evenodd"/>
</svg>